<mxfile modified="2023-07-23T08:19:49.353Z" host="app.diagrams.net" agent="Mozilla/5.0 (Windows NT 10.0; Win64; x64) AppleWebKit/537.36 (KHTML, like Gecko) Chrome/114.0.0.0 Safari/537.36" etag="B6pPY-Sid_G8UMIlHRTo" version="21.6.5" type="device">
  <diagram id="Ht1M8jgEwFfnCIfOTk4-" name="Page-1">
    <mxGraphModel dx="1434" dy="1615" grid="1" gridSize="10" guides="1" tooltips="1" connect="1" arrows="1" fold="1" page="1" pageScale="1" pageWidth="1169" pageHeight="827" math="0" shadow="0">
      <root>
        <mxCell id="0" />
        <mxCell id="1" parent="0" />
        <mxCell id="UEzPUAAOIrF-is8g5C7q-175" value="AWS Cloud" style="points=[[0,0],[0.25,0],[0.5,0],[0.75,0],[1,0],[1,0.25],[1,0.5],[1,0.75],[1,1],[0.75,1],[0.5,1],[0.25,1],[0,1],[0,0.75],[0,0.5],[0,0.25]];outlineConnect=0;gradientColor=none;html=1;whiteSpace=wrap;fontSize=12;fontStyle=0;shape=mxgraph.aws4.group;grIcon=mxgraph.aws4.group_aws_cloud_alt;strokeColor=#232F3E;fillColor=none;verticalAlign=top;align=left;spacingLeft=30;fontColor=#232F3E;dashed=0;labelBackgroundColor=#ffffff;container=1;pointerEvents=0;collapsible=0;recursiveResize=0;" parent="1" vertex="1">
          <mxGeometry x="219" y="-789.5" width="730" height="410" as="geometry" />
        </mxCell>
        <mxCell id="v5NmBejB6E7bDZCc2Zhs-1" value="" style="sketch=0;points=[[0,0,0],[0.25,0,0],[0.5,0,0],[0.75,0,0],[1,0,0],[0,1,0],[0.25,1,0],[0.5,1,0],[0.75,1,0],[1,1,0],[0,0.25,0],[0,0.5,0],[0,0.75,0],[1,0.25,0],[1,0.5,0],[1,0.75,0]];outlineConnect=0;fontColor=#232F3E;gradientColor=#F78E04;gradientDirection=north;fillColor=#D05C17;strokeColor=#ffffff;dashed=0;verticalLabelPosition=bottom;verticalAlign=top;align=center;html=1;fontSize=12;fontStyle=0;aspect=fixed;shape=mxgraph.aws4.resourceIcon;resIcon=mxgraph.aws4.lambda;" vertex="1" parent="UEzPUAAOIrF-is8g5C7q-175">
          <mxGeometry x="41" y="59.5" width="78" height="78" as="geometry" />
        </mxCell>
        <mxCell id="v5NmBejB6E7bDZCc2Zhs-2" value="" style="sketch=0;points=[[0,0,0],[0.25,0,0],[0.5,0,0],[0.75,0,0],[1,0,0],[0,1,0],[0.25,1,0],[0.5,1,0],[0.75,1,0],[1,1,0],[0,0.25,0],[0,0.5,0],[0,0.75,0],[1,0.25,0],[1,0.5,0],[1,0.75,0]];outlineConnect=0;fontColor=#232F3E;gradientColor=#F78E04;gradientDirection=north;fillColor=#D05C17;strokeColor=#ffffff;dashed=0;verticalLabelPosition=bottom;verticalAlign=top;align=center;html=1;fontSize=12;fontStyle=0;aspect=fixed;shape=mxgraph.aws4.resourceIcon;resIcon=mxgraph.aws4.lambda;" vertex="1" parent="UEzPUAAOIrF-is8g5C7q-175">
          <mxGeometry x="531" y="249.5" width="78" height="78" as="geometry" />
        </mxCell>
        <mxCell id="v5NmBejB6E7bDZCc2Zhs-3" value="" style="sketch=0;points=[[0,0,0],[0.25,0,0],[0.5,0,0],[0.75,0,0],[1,0,0],[0,1,0],[0.25,1,0],[0.5,1,0],[0.75,1,0],[1,1,0],[0,0.25,0],[0,0.5,0],[0,0.75,0],[1,0.25,0],[1,0.5,0],[1,0.75,0]];outlineConnect=0;fontColor=#232F3E;gradientColor=#FF4F8B;gradientDirection=north;fillColor=#BC1356;strokeColor=#ffffff;dashed=0;verticalLabelPosition=bottom;verticalAlign=top;align=center;html=1;fontSize=12;fontStyle=0;aspect=fixed;shape=mxgraph.aws4.resourceIcon;resIcon=mxgraph.aws4.sns;" vertex="1" parent="UEzPUAAOIrF-is8g5C7q-175">
          <mxGeometry x="288" y="59.5" width="78" height="78" as="geometry" />
        </mxCell>
        <mxCell id="v5NmBejB6E7bDZCc2Zhs-4" value="" style="sketch=0;points=[[0,0,0],[0.25,0,0],[0.5,0,0],[0.75,0,0],[1,0,0],[0,1,0],[0.25,1,0],[0.5,1,0],[0.75,1,0],[1,1,0],[0,0.25,0],[0,0.5,0],[0,0.75,0],[1,0.25,0],[1,0.5,0],[1,0.75,0]];outlineConnect=0;fontColor=#232F3E;gradientColor=#FF4F8B;gradientDirection=north;fillColor=#BC1356;strokeColor=#ffffff;dashed=0;verticalLabelPosition=bottom;verticalAlign=top;align=center;html=1;fontSize=12;fontStyle=0;aspect=fixed;shape=mxgraph.aws4.resourceIcon;resIcon=mxgraph.aws4.sns;" vertex="1" parent="UEzPUAAOIrF-is8g5C7q-175">
          <mxGeometry x="288" y="249.5" width="78" height="78" as="geometry" />
        </mxCell>
        <mxCell id="v5NmBejB6E7bDZCc2Zhs-5" value="" style="sketch=0;points=[[0,0,0],[0.25,0,0],[0.5,0,0],[0.75,0,0],[1,0,0],[0,1,0],[0.25,1,0],[0.5,1,0],[0.75,1,0],[1,1,0],[0,0.25,0],[0,0.5,0],[0,0.75,0],[1,0.25,0],[1,0.5,0],[1,0.75,0]];outlineConnect=0;fontColor=#232F3E;gradientColor=#FF4F8B;gradientDirection=north;fillColor=#BC1356;strokeColor=#ffffff;dashed=0;verticalLabelPosition=bottom;verticalAlign=top;align=center;html=1;fontSize=12;fontStyle=0;aspect=fixed;shape=mxgraph.aws4.resourceIcon;resIcon=mxgraph.aws4.sqs;" vertex="1" parent="UEzPUAAOIrF-is8g5C7q-175">
          <mxGeometry x="531" y="59.5" width="78" height="78" as="geometry" />
        </mxCell>
        <mxCell id="v5NmBejB6E7bDZCc2Zhs-6" value="sendOrderDetailsToSNS" style="text;html=1;strokeColor=none;fillColor=none;align=center;verticalAlign=middle;whiteSpace=wrap;rounded=0;fontStyle=1" vertex="1" parent="UEzPUAAOIrF-is8g5C7q-175">
          <mxGeometry x="50" y="149.5" width="60" height="30" as="geometry" />
        </mxCell>
        <mxCell id="v5NmBejB6E7bDZCc2Zhs-14" value="SendOrderDetailsToSQS" style="text;html=1;strokeColor=none;fillColor=none;align=center;verticalAlign=middle;whiteSpace=wrap;rounded=0;fontStyle=1" vertex="1" parent="UEzPUAAOIrF-is8g5C7q-175">
          <mxGeometry x="255.5" y="149.5" width="143" height="30" as="geometry" />
        </mxCell>
        <mxCell id="v5NmBejB6E7bDZCc2Zhs-15" value="SNStoHalifaxTaxiQueue" style="text;html=1;strokeColor=none;fillColor=none;align=center;verticalAlign=middle;whiteSpace=wrap;rounded=0;fontStyle=1" vertex="1" parent="UEzPUAAOIrF-is8g5C7q-175">
          <mxGeometry x="495" y="149.5" width="150" height="30" as="geometry" />
        </mxCell>
        <mxCell id="v5NmBejB6E7bDZCc2Zhs-16" value="SendOrderDetailsToEmail" style="text;html=1;strokeColor=none;fillColor=none;align=center;verticalAlign=middle;whiteSpace=wrap;rounded=0;fontStyle=1" vertex="1" parent="UEzPUAAOIrF-is8g5C7q-175">
          <mxGeometry x="251" y="339.5" width="163" height="30" as="geometry" />
        </mxCell>
        <mxCell id="v5NmBejB6E7bDZCc2Zhs-17" value="sendOrderDetailsToHalifaxTaxi" style="text;html=1;strokeColor=none;fillColor=none;align=center;verticalAlign=middle;whiteSpace=wrap;rounded=0;fontStyle=1" vertex="1" parent="UEzPUAAOIrF-is8g5C7q-175">
          <mxGeometry x="491" y="339.5" width="181" height="30" as="geometry" />
        </mxCell>
        <mxCell id="v5NmBejB6E7bDZCc2Zhs-18" value="" style="edgeStyle=orthogonalEdgeStyle;html=1;endArrow=block;elbow=vertical;startArrow=none;endFill=1;strokeColor=#545B64;rounded=0;entryX=0;entryY=0.5;entryDx=0;entryDy=0;entryPerimeter=0;exitX=1;exitY=0.5;exitDx=0;exitDy=0;exitPerimeter=0;" edge="1" parent="UEzPUAAOIrF-is8g5C7q-175" source="v5NmBejB6E7bDZCc2Zhs-1" target="v5NmBejB6E7bDZCc2Zhs-3">
          <mxGeometry width="100" relative="1" as="geometry">
            <mxPoint x="161" y="109.5" as="sourcePoint" />
            <mxPoint x="219" y="98" as="targetPoint" />
          </mxGeometry>
        </mxCell>
        <mxCell id="v5NmBejB6E7bDZCc2Zhs-19" value="" style="edgeStyle=orthogonalEdgeStyle;html=1;endArrow=block;elbow=vertical;startArrow=none;endFill=1;strokeColor=#545B64;rounded=0;entryX=0;entryY=0.5;entryDx=0;entryDy=0;entryPerimeter=0;exitX=1;exitY=0.5;exitDx=0;exitDy=0;exitPerimeter=0;" edge="1" parent="UEzPUAAOIrF-is8g5C7q-175" source="v5NmBejB6E7bDZCc2Zhs-3" target="v5NmBejB6E7bDZCc2Zhs-5">
          <mxGeometry width="100" relative="1" as="geometry">
            <mxPoint x="129" y="109" as="sourcePoint" />
            <mxPoint x="298" y="109" as="targetPoint" />
          </mxGeometry>
        </mxCell>
        <mxCell id="v5NmBejB6E7bDZCc2Zhs-20" value="" style="edgeStyle=orthogonalEdgeStyle;html=1;endArrow=block;elbow=vertical;startArrow=none;endFill=1;strokeColor=#545B64;rounded=0;exitX=0.5;exitY=1;exitDx=0;exitDy=0;" edge="1" parent="UEzPUAAOIrF-is8g5C7q-175" source="v5NmBejB6E7bDZCc2Zhs-15" target="v5NmBejB6E7bDZCc2Zhs-2">
          <mxGeometry width="100" relative="1" as="geometry">
            <mxPoint x="361" y="204.5" as="sourcePoint" />
            <mxPoint x="526" y="204.5" as="targetPoint" />
          </mxGeometry>
        </mxCell>
        <mxCell id="v5NmBejB6E7bDZCc2Zhs-21" value="" style="edgeStyle=orthogonalEdgeStyle;html=1;endArrow=block;elbow=vertical;startArrow=none;endFill=1;strokeColor=#545B64;rounded=0;entryX=1;entryY=0.5;entryDx=0;entryDy=0;entryPerimeter=0;exitX=0;exitY=0.5;exitDx=0;exitDy=0;exitPerimeter=0;" edge="1" parent="UEzPUAAOIrF-is8g5C7q-175" source="v5NmBejB6E7bDZCc2Zhs-2" target="v5NmBejB6E7bDZCc2Zhs-4">
          <mxGeometry width="100" relative="1" as="geometry">
            <mxPoint x="361" y="204.5" as="sourcePoint" />
            <mxPoint x="526" y="204.5" as="targetPoint" />
          </mxGeometry>
        </mxCell>
        <mxCell id="v5NmBejB6E7bDZCc2Zhs-22" value="publish order details to SNS" style="text;html=1;strokeColor=none;fillColor=none;align=center;verticalAlign=middle;whiteSpace=wrap;rounded=0;" vertex="1" parent="UEzPUAAOIrF-is8g5C7q-175">
          <mxGeometry x="151" y="69.5" width="79" height="30" as="geometry" />
        </mxCell>
        <mxCell id="v5NmBejB6E7bDZCc2Zhs-23" value="Send the order details to Queue" style="text;html=1;strokeColor=none;fillColor=none;align=center;verticalAlign=middle;whiteSpace=wrap;rounded=0;" vertex="1" parent="UEzPUAAOIrF-is8g5C7q-175">
          <mxGeometry x="391" y="59.5" width="109" height="30" as="geometry" />
        </mxCell>
        <mxCell id="v5NmBejB6E7bDZCc2Zhs-25" value="Triggers every 2 minutes based on EventBridge rule" style="text;html=1;strokeColor=none;fillColor=none;align=center;verticalAlign=middle;whiteSpace=wrap;rounded=0;" vertex="1" parent="UEzPUAAOIrF-is8g5C7q-175">
          <mxGeometry x="571" y="180" width="109" height="50" as="geometry" />
        </mxCell>
        <mxCell id="v5NmBejB6E7bDZCc2Zhs-26" value="Publish order details to SNS" style="text;html=1;strokeColor=none;fillColor=none;align=center;verticalAlign=middle;whiteSpace=wrap;rounded=0;" vertex="1" parent="UEzPUAAOIrF-is8g5C7q-175">
          <mxGeometry x="391" y="239.5" width="109" height="50" as="geometry" />
        </mxCell>
        <mxCell id="v5NmBejB6E7bDZCc2Zhs-29" value="Sends notification to the subscribers" style="text;html=1;strokeColor=none;fillColor=none;align=center;verticalAlign=middle;whiteSpace=wrap;rounded=0;" vertex="1" parent="UEzPUAAOIrF-is8g5C7q-175">
          <mxGeometry x="141" y="249.5" width="99" height="30" as="geometry" />
        </mxCell>
        <mxCell id="v5NmBejB6E7bDZCc2Zhs-28" value="" style="sketch=0;outlineConnect=0;fontColor=#232F3E;gradientColor=none;fillColor=#232F3D;strokeColor=none;dashed=0;verticalLabelPosition=bottom;verticalAlign=top;align=center;html=1;fontSize=12;fontStyle=0;aspect=fixed;pointerEvents=1;shape=mxgraph.aws4.client;" vertex="1" parent="1">
          <mxGeometry x="76" y="-539" width="78" height="76" as="geometry" />
        </mxCell>
        <mxCell id="v5NmBejB6E7bDZCc2Zhs-27" value="Bob&#39;s Gmail&lt;br&gt;(as subscriber - Bob receives the order details)" style="text;html=1;strokeColor=none;fillColor=none;align=center;verticalAlign=middle;whiteSpace=wrap;rounded=0;" vertex="1" parent="1">
          <mxGeometry x="57" y="-450" width="116" height="53" as="geometry" />
        </mxCell>
        <mxCell id="v5NmBejB6E7bDZCc2Zhs-30" value="" style="edgeStyle=orthogonalEdgeStyle;html=1;endArrow=block;elbow=vertical;startArrow=none;endFill=1;strokeColor=#545B64;rounded=0;exitX=0;exitY=0.5;exitDx=0;exitDy=0;exitPerimeter=0;" edge="1" parent="1" source="v5NmBejB6E7bDZCc2Zhs-4" target="v5NmBejB6E7bDZCc2Zhs-28">
          <mxGeometry width="100" relative="1" as="geometry">
            <mxPoint x="494" y="-501.5" as="sourcePoint" />
            <mxPoint x="329" y="-501.5" as="targetPoint" />
          </mxGeometry>
        </mxCell>
        <mxCell id="v5NmBejB6E7bDZCc2Zhs-35" value="" style="edgeStyle=orthogonalEdgeStyle;html=1;endArrow=block;elbow=vertical;startArrow=none;endFill=1;strokeColor=#545B64;rounded=0;exitX=1;exitY=0.5;exitDx=0;exitDy=0;exitPerimeter=0;" edge="1" parent="1" source="v5NmBejB6E7bDZCc2Zhs-33">
          <mxGeometry width="100" relative="1" as="geometry">
            <mxPoint x="160" y="-609.5" as="sourcePoint" />
            <mxPoint x="260" y="-691" as="targetPoint" />
          </mxGeometry>
        </mxCell>
        <mxCell id="v5NmBejB6E7bDZCc2Zhs-36" value="" style="group" vertex="1" connectable="0" parent="1">
          <mxGeometry x="100" y="-740" width="80" height="95" as="geometry" />
        </mxCell>
        <mxCell id="v5NmBejB6E7bDZCc2Zhs-33" value="" style="shape=cylinder3;whiteSpace=wrap;html=1;boundedLbl=1;backgroundOutline=1;size=15;fillColor=#0064f0;strokeColor=#6c8ebf;" vertex="1" parent="v5NmBejB6E7bDZCc2Zhs-36">
          <mxGeometry width="80" height="95" as="geometry" />
        </mxCell>
        <mxCell id="v5NmBejB6E7bDZCc2Zhs-34" value="CAR, &lt;br&gt;ADDOON,&lt;br&gt;CLIENT" style="text;html=1;strokeColor=none;fillColor=none;align=center;verticalAlign=middle;whiteSpace=wrap;rounded=0;fontColor=#ffffff;" vertex="1" parent="v5NmBejB6E7bDZCc2Zhs-36">
          <mxGeometry x="10" y="45" width="60" height="40" as="geometry" />
        </mxCell>
      </root>
    </mxGraphModel>
  </diagram>
</mxfile>
